HIERARCHY
ROOT Hips
{
	OFFSET 0.000000 0.000000 0.000000
	CHANNELS 6 Xposition Yposition Zposition Zrotation Yrotation Xrotation 
	JOINT Spine1
	{
		OFFSET -0.013727 5.003763 -0.053727
		CHANNELS 3 Zrotation Yrotation Xrotation
		JOINT Spine2
		{
			OFFSET -0.000000 7.125301 -0.029825
			CHANNELS 3 Zrotation Yrotation Xrotation
			JOINT Chest
			{
				OFFSET -0.000001 7.550063 -0.815971
				CHANNELS 3 Zrotation Yrotation Xrotation
				JOINT Neck1
				{
					OFFSET -0.181677 26.311296 -0.553348
					CHANNELS 3 Zrotation Yrotation Xrotation
					JOINT Neck2
					{
						OFFSET -0.000003 7.709399 2.302586
						CHANNELS 3 Zrotation Yrotation Xrotation
						JOINT Head
						{
							OFFSET -0.000005 6.128913 1.953708
							CHANNELS 3 Zrotation Yrotation Xrotation
							JOINT HeadEnd
							{
								OFFSET 0.003598 16.065401 -1.835379
								CHANNELS 3 Zrotation Yrotation Xrotation
								End Site
								{
									OFFSET 0.000000 0.000000 0.000000
								}
							}
							JOINT Jaw
							{
								OFFSET 0.002637 0.475592 3.094940
								CHANNELS 3 Zrotation Yrotation Xrotation
								End Site
								{
									OFFSET 0.000000 0.000000 0.000000
								}
							}
							JOINT LeftEye
							{
								OFFSET 3.206381 5.380208 7.586883
								CHANNELS 3 Zrotation Yrotation Xrotation
								End Site
								{
									OFFSET 0.000000 0.000000 0.000000
								}
							}
							JOINT RightEye
							{
								OFFSET -3.222440 5.361867 7.558233
								CHANNELS 3 Zrotation Yrotation Xrotation
								End Site
								{
									OFFSET 0.000000 0.000000 0.000000
								}
							}
						}
					}
				}
				JOINT LeftShoulder
				{
					OFFSET 1.621652 23.237164 5.113413
					CHANNELS 3 Zrotation Yrotation Xrotation
					JOINT LeftArm
					{
						OFFSET 14.919845 0.000000 -5.502326
						CHANNELS 3 Zrotation Yrotation Xrotation
						JOINT LeftForeArm
						{
							OFFSET 28.739313 0.000003 -0.002588
							CHANNELS 3 Zrotation Yrotation Xrotation
							JOINT LeftHand
							{
								OFFSET 27.093979 -0.000003 0.002609
								CHANNELS 3 Zrotation Yrotation Xrotation
								JOINT LeftHandThumb1
								{
									OFFSET 2.276481 -1.392045 3.191414
									CHANNELS 3 Zrotation Yrotation Xrotation
									JOINT LeftHandThumb2
									{
										OFFSET 4.012841 -1.828127 1.641655
										CHANNELS 3 Zrotation Yrotation Xrotation
										JOINT LeftHandThumb3
										{
											OFFSET 2.798516 0.000001 -0.000003
											CHANNELS 3 Zrotation Yrotation Xrotation
											JOINT LeftHandThumbEnd
											{
												OFFSET 3.180791 -0.000001 0.000004
												CHANNELS 3 Zrotation Yrotation Xrotation
												End Site
												{
													OFFSET 0.000000 0.000000 0.000000
												}
											}
										}
									}
								}
								JOINT LeftHandIndex1
								{
									OFFSET 3.247554 -0.531998 2.296170
									CHANNELS 3 Zrotation Yrotation Xrotation
									JOINT LeftHandIndex2
									{
										OFFSET 6.364580 0.012062 0.178600
										CHANNELS 3 Zrotation Yrotation Xrotation
										JOINT LeftHandIndex3
										{
											OFFSET 3.662366 0.000000 -0.000000
											CHANNELS 3 Zrotation Yrotation Xrotation
											JOINT LeftHandIndex4
											{
												OFFSET 2.329243 0.000002 0.000004
												CHANNELS 3 Zrotation Yrotation Xrotation
												JOINT LeftHandIndexEnd
												{
													OFFSET 2.759619 -0.180539 -0.113023
													CHANNELS 3 Zrotation Yrotation Xrotation
													End Site
													{
														OFFSET 0.000000 0.000000 0.000000
													}
												}
											}
										}
									}
								}
								JOINT LeftHandMiddle1
								{
									OFFSET 3.163499 0.240982 1.000333
									CHANNELS 3 Zrotation Yrotation Xrotation
									JOINT LeftHandMiddle2
									{
										OFFSET 6.190778 -0.259276 -1.002549
										CHANNELS 3 Zrotation Yrotation Xrotation
										JOINT LeftHandMiddle3
										{
											OFFSET 4.356522 -0.000007 -0.000000
											CHANNELS 3 Zrotation Yrotation Xrotation
											JOINT LeftHandMiddle4
											{
												OFFSET 2.996876 -0.000006 0.000001
												CHANNELS 3 Zrotation Yrotation Xrotation
												JOINT LeftHandMiddleEnd
												{
													OFFSET 2.304294 -0.294571 -0.031740
													CHANNELS 3 Zrotation Yrotation Xrotation
													End Site
													{
														OFFSET 0.000000 0.000000 0.000000
													}
												}
											}
										}
									}
								}
								JOINT LeftHandRing1
								{
									OFFSET 2.882642 -0.053650 -0.322542
									CHANNELS 3 Zrotation Yrotation Xrotation
									JOINT LeftHandRing2
									{
										OFFSET 5.854542 -0.486203 -1.373842
										CHANNELS 3 Zrotation Yrotation Xrotation
										JOINT LeftHandRing3
										{
											OFFSET 4.350580 0.000001 0.000004
											CHANNELS 3 Zrotation Yrotation Xrotation
											JOINT LeftHandRing4
											{
												OFFSET 2.651323 0.000007 0.000003
												CHANNELS 3 Zrotation Yrotation Xrotation
												JOINT LeftHandRingEnd
												{
													OFFSET 1.936111 0.077684 -0.000071
													CHANNELS 3 Zrotation Yrotation Xrotation
													End Site
													{
														OFFSET 0.000000 0.000000 0.000000
													}
												}
											}
										}
									}
								}
								JOINT LeftHandPinky1
								{
									OFFSET 2.865500 -0.310003 -1.600377
									CHANNELS 3 Zrotation Yrotation Xrotation
									JOINT LeftHandPinky2
									{
										OFFSET 5.087853 -1.331141 -1.771231
										CHANNELS 3 Zrotation Yrotation Xrotation
										JOINT LeftHandPinky3
										{
											OFFSET 3.070974 0.000003 0.000000
											CHANNELS 3 Zrotation Yrotation Xrotation
											JOINT LeftHandPinky4
											{
												OFFSET 1.549667 -0.000000 0.000000
												CHANNELS 3 Zrotation Yrotation Xrotation
												JOINT LeftHandPinkyEnd
												{
													OFFSET 1.944894 -0.157802 0.057219
													CHANNELS 3 Zrotation Yrotation Xrotation
													End Site
													{
														OFFSET 0.000000 0.000000 0.000000
													}
												}
											}
										}
									}
								}
							}
						}
					}
				}
				JOINT RightShoulder
				{
					OFFSET -1.380118 23.180307 5.214158
					CHANNELS 3 Zrotation Yrotation Xrotation
					JOINT RightArm
					{
						OFFSET -15.037197 0.000011 -5.545604
						CHANNELS 3 Zrotation Yrotation Xrotation
						JOINT RightForeArm
						{
							OFFSET -28.736639 0.000002 -0.002598
							CHANNELS 3 Zrotation Yrotation Xrotation
							JOINT RightHand
							{
								OFFSET -27.133619 -0.000000 0.002613
								CHANNELS 3 Zrotation Yrotation Xrotation
								JOINT RightHandThumb1
								{
									OFFSET -2.274038 -1.383990 3.163128
									CHANNELS 3 Zrotation Yrotation Xrotation
									JOINT RightHandThumb2
									{
										OFFSET -4.011429 -1.827468 1.640914
										CHANNELS 3 Zrotation Yrotation Xrotation
										JOINT RightHandThumb3
										{
											OFFSET -2.794934 -0.000003 -0.000004
											CHANNELS 3 Zrotation Yrotation Xrotation
											JOINT RightHandThumbEnd
											{
												OFFSET -3.183855 0.000003 0.000000
												CHANNELS 3 Zrotation Yrotation Xrotation
												End Site
												{
													OFFSET 0.000000 0.000000 0.000000
												}
											}
										}
									}
								}
								JOINT RightHandIndex1
								{
									OFFSET -3.253271 -0.520060 2.282867
									CHANNELS 3 Zrotation Yrotation Xrotation
									JOINT RightHandIndex2
									{
										OFFSET -6.341916 0.012472 0.178264
										CHANNELS 3 Zrotation Yrotation Xrotation
										JOINT RightHandIndex3
										{
											OFFSET -3.654874 -0.000009 -0.000001
											CHANNELS 3 Zrotation Yrotation Xrotation
											JOINT RightHandIndex4
											{
												OFFSET -2.327586 0.000000 0.000000
												CHANNELS 3 Zrotation Yrotation Xrotation
												JOINT RightHandIndexEnd
												{
													OFFSET -2.761789 -0.180657 -0.113079
													CHANNELS 3 Zrotation Yrotation Xrotation
													End Site
													{
														OFFSET 0.000000 0.000000 0.000000
													}
												}
											}
										}
									}
								}
								JOINT RightHandMiddle1
								{
									OFFSET -3.168106 0.246593 1.001030
									CHANNELS 3 Zrotation Yrotation Xrotation
									JOINT RightHandMiddle2
									{
										OFFSET -6.180831 -0.258836 -1.000896
										CHANNELS 3 Zrotation Yrotation Xrotation
										JOINT RightHandMiddle3
										{
											OFFSET -4.348906 -0.000001 -0.000001
											CHANNELS 3 Zrotation Yrotation Xrotation
											JOINT RightHandMiddle4
											{
												OFFSET -3.000243 -0.000004 -0.000002
												CHANNELS 3 Zrotation Yrotation Xrotation
												JOINT RightHandMiddleEnd
												{
													OFFSET -2.302518 -0.294371 -0.031706
													CHANNELS 3 Zrotation Yrotation Xrotation
													End Site
													{
														OFFSET 0.000000 0.000000 0.000000
													}
												}
											}
										}
									}
								}
								JOINT RightHandRing1
								{
									OFFSET -2.885693 -0.067952 -0.308858
									CHANNELS 3 Zrotation Yrotation Xrotation
									JOINT RightHandRing2
									{
										OFFSET -5.854198 -0.486132 -1.373731
										CHANNELS 3 Zrotation Yrotation Xrotation
										JOINT RightHandRing3
										{
											OFFSET -4.338814 -0.000003 -0.000001
											CHANNELS 3 Zrotation Yrotation Xrotation
											JOINT RightHandRing4
											{
												OFFSET -2.654906 -0.000004 0.000005
												CHANNELS 3 Zrotation Yrotation Xrotation
												JOINT RightHandRingEnd
												{
													OFFSET -1.933570 0.077524 -0.000052
													CHANNELS 3 Zrotation Yrotation Xrotation
													End Site
													{
														OFFSET 0.000000 0.000000 0.000000
													}
												}
											}
										}
									}
								}
								JOINT RightHandPinky1
								{
									OFFSET -2.866430 -0.342798 -1.584144
									CHANNELS 3 Zrotation Yrotation Xrotation
									JOINT RightHandPinky2
									{
										OFFSET -5.091369 -1.332054 -1.772386
										CHANNELS 3 Zrotation Yrotation Xrotation
										JOINT RightHandPinky3
										{
											OFFSET -3.062666 -0.000007 0.000000
											CHANNELS 3 Zrotation Yrotation Xrotation
											JOINT RightHandPinky4
											{
												OFFSET -1.546528 0.000006 -0.000002
												CHANNELS 3 Zrotation Yrotation Xrotation
												JOINT RightHandPinkyEnd
												{
													OFFSET -1.945122 -0.157721 0.057211
													CHANNELS 3 Zrotation Yrotation Xrotation
													End Site
													{
														OFFSET 0.000000 0.000000 0.000000
													}
												}
											}
										}
									}
								}
							}
						}
					}
				}
			}
		}
	}
	JOINT LeftLeg
	{
		OFFSET 10.043214 -8.434526 2.595654
		CHANNELS 3 Zrotation Yrotation Xrotation
		JOINT LeftShin
		{
			OFFSET -0.000001 -43.221752 -0.802913
			CHANNELS 3 Zrotation Yrotation Xrotation
			JOINT LeftFoot
			{
				OFFSET 0.000002 -42.155094 -3.481523
				CHANNELS 3 Zrotation Yrotation Xrotation
				JOINT LeftToeBase
				{
					OFFSET 0.000001 -5.059475 13.231529
					CHANNELS 3 Zrotation Yrotation Xrotation
					JOINT LeftToeEnd
					{
						OFFSET -0.009607 -1.647616 6.513017
						CHANNELS 3 Zrotation Yrotation Xrotation
						End Site
						{
							OFFSET 0.000000 0.000000 0.000000
						}
					}
				}
			}
		}
	}
	JOINT RightLeg
	{
		OFFSET -10.047277 -8.295259 2.620317
		CHANNELS 3 Zrotation Yrotation Xrotation
		JOINT RightShin
		{
			OFFSET 0.000001 -43.362209 -0.805556
			CHANNELS 3 Zrotation Yrotation Xrotation
			JOINT RightFoot
			{
				OFFSET 0.000002 -42.117393 -3.478399
				CHANNELS 3 Zrotation Yrotation Xrotation
				JOINT RightToeBase
				{
					OFFSET -0.000001 -5.079610 13.284196
					CHANNELS 3 Zrotation Yrotation Xrotation
					JOINT RightToeEnd
					{
						OFFSET 0.009532 -1.634383 6.460591
						CHANNELS 3 Zrotation Yrotation Xrotation
						End Site
						{
							OFFSET 0.000000 0.000000 0.000000
						}
					}
				}
			}
		}
	}
}
MOTION
Frames: 4
Frame Time: 0.033333
-1.485139 91.869858 1.570738 1.604720 0.282918 -8.736673 0.866157 0.567635 1.480541 -0.387617 1.580161 -4.032242 1.364159 -0.152644 13.862006 -7.953352 9.338297 22.592644 0.359846 2.550500 -3.772543 -1.353191 2.857406 -9.606478 0.000077 -0.000022 0.000006 -0.010161 0.012592 0.014508 0.730692 -3.674187 -10.573968 -0.763033 3.692521 -10.514715 -7.860313 -5.055537 9.794532 -52.863453 -21.021095 0.287742 176.925858 -47.479210 -177.954803 20.661602 -5.903892 -10.416567 -5.882100 9.861279 0.702590 -10.936858 -0.360576 7.156196 0.000002 8.774813 -0.000001 -15.750603 18.996510 6.417749 -1.844031 2.498501 -2.507276 -10.163589 4.678937 4.621104 -20.975996 -0.000004 0.000003 -21.226255 2.451692 -3.593992 -0.000000 -0.000004 -0.000002 -1.362681 2.240798 -0.746323 -21.334892 0.584907 3.008320 -13.821197 -0.000001 0.000002 -23.887136 -0.249077 -0.839482 -60.800285 2.662564 -1.198553 -0.294024 1.679685 0.833255 -14.218190 0.093215 1.300579 -34.212006 -0.287565 0.967171 -20.033176 0.964535 1.212843 -0.000000 0.000000 0.000000 -3.440385 0.788232 0.501655 -15.928165 -3.167306 2.999704 -6.338817 -0.000002 0.000001 -18.123413 3.648177 -4.905660 -0.000005 -0.000002 -0.000003 11.537106 14.732709 11.204330 54.095715 42.479927 26.000578 -173.252792 62.492355 -174.128265 -20.662773 10.752571 -8.509212 2.243540 -5.255031 -3.180156 14.282878 -0.826593 6.952496 -0.000000 -12.690590 0.000000 16.123798 -18.536671 2.751766 1.665665 -1.955919 -2.878297 4.727792 -4.170582 4.993920 11.020511 0.000004 -0.000001 12.109031 -3.735708 -2.866781 0.000002 -0.000000 -0.000001 1.291984 -1.928548 -1.498086 14.800114 0.567467 3.865603 14.242554 -1.341736 -6.660649 19.631939 0.143926 -0.648243 50.062386 -0.489539 -6.655046 0.353028 -1.511151 -0.031940 20.222769 3.684306 2.316627 18.787245 0.000005 0.000000 10.751613 -0.479866 1.397903 -0.000000 -0.000002 0.000001 3.273803 0.305947 -0.580109 21.486794 11.830362 2.266130 8.162918 0.000001 0.000000 18.399055 -3.798979 -4.940568 0.000003 0.000001 -0.000003 14.683289 22.587780 -21.450520 -0.488167 -0.702394 37.179916 -13.768884 -8.444011 4.326592 1.655003 -1.849275 -0.723769 -0.000000 0.000000 0.000002 -15.705666 -19.849169 3.122525 0.076480 0.636264 40.652920 9.344730 7.409548 -27.540848 -1.480284 0.794561 -1.766032 -0.000000 -0.000000 -0.000001 
-2.096826 92.088425 1.390103 1.995287 0.470728 -9.218289 0.816139 0.511573 0.926547 -0.355427 1.311309 -4.055620 1.088504 -0.653455 14.516092 -7.972678 9.757872 24.097609 0.363010 2.304292 -3.752565 -1.803845 2.799664 -8.150282 0.000077 -0.000023 0.000006 -0.024779 0.067450 0.050678 0.716502 -3.606592 -10.576093 -0.773098 3.736929 -10.575539 -11.419962 -4.749290 10.739598 -48.368431 -15.883829 1.955791 176.898209 -55.901093 -178.251755 20.218214 -7.424366 -12.782700 -5.882102 9.861278 0.702590 -10.936860 -0.360575 7.156199 0.000002 8.774812 -0.000000 -15.939283 18.994253 6.322271 -1.844031 2.498503 -2.507276 -10.163589 4.678938 4.621104 -20.975992 -0.000005 0.000005 -21.226248 2.451694 -3.593993 -0.000001 -0.000005 -0.000002 -1.362681 2.240796 -0.746322 -21.334890 0.584908 3.008320 -13.821195 -0.000004 0.000004 -23.887133 -0.249077 -0.839480 -60.583187 2.664644 -1.188541 -0.294024 1.679689 0.833255 -14.218194 0.093213 1.300581 -34.212002 -0.287562 0.967171 -20.033178 0.964535 1.212840 0.000000 0.000000 0.000002 -3.440385 0.788231 0.501655 -15.928165 -3.167307 2.999704 -6.338817 -0.000001 0.000002 -18.123407 3.648177 -4.905660 -0.000005 -0.000000 -0.000002 13.631453 13.251718 12.044718 52.525269 41.107483 27.656717 -176.077957 65.560593 -176.358124 -22.024307 11.363163 -7.143907 2.243540 -5.255033 -3.180155 14.282877 -0.826592 6.952493 -0.000002 -12.690590 0.000000 16.000477 -18.369911 2.885304 1.665664 -1.955920 -2.878297 4.727794 -4.170584 4.993918 11.020514 0.000004 -0.000003 12.109031 -3.735712 -2.866778 -0.000001 -0.000002 -0.000002 1.291984 -1.928547 -1.498087 14.800114 0.567468 3.865602 14.242553 -1.341735 -6.660650 19.631939 0.143927 -0.648245 50.096741 -0.430719 -6.346887 0.353029 -1.511150 -0.031940 20.222769 3.684308 2.316626 18.787245 0.000004 -0.000001 10.751610 -0.479867 1.397903 -0.000001 0.000000 -0.000000 3.273804 0.305946 -0.580109 21.486794 11.830365 2.266132 8.162917 0.000002 0.000000 18.399054 -3.798981 -4.940569 0.000001 0.000000 -0.000002 14.729324 21.614616 -19.514404 -0.512981 -0.658903 34.173512 -14.542583 -8.450401 4.571306 1.670239 -1.846612 -0.447327 0.000000 -0.000000 0.000002 -15.630362 -19.503574 3.858003 0.141506 0.715729 39.902943 8.667830 7.341061 -27.807682 -1.462360 0.692354 -1.647190 0.000000 0.000000 -0.000001 
-2.617071 93.110092 1.326907 2.602783 0.855773 -9.342262 0.807047 0.285691 0.176233 -0.273443 1.130624 -4.217426 0.922827 -1.011265 14.809823 -8.256833 10.632215 25.843979 0.270982 1.963261 -3.586655 -1.935860 2.445539 -6.152109 0.000077 -0.000022 0.000006 -0.039775 0.131302 0.051528 0.678588 -3.554455 -10.567851 -0.768087 3.811187 -10.608297 -14.609853 -3.674917 11.202654 -45.480782 -9.995298 4.900031 176.714340 -68.033890 -178.282974 19.336607 -8.371826 -15.571588 -5.882101 9.861278 0.702590 -10.936858 -0.360574 7.156199 -0.000001 8.774812 -0.000000 -15.777858 18.180176 6.208918 -1.844032 2.498503 -2.507276 -10.163589 4.678940 4.621104 -20.975992 -0.000001 0.000004 -21.226248 2.451694 -3.593993 0.000001 -0.000006 -0.000000 -1.362680 2.240796 -0.746323 -21.334887 0.584910 3.008322 -13.821197 -0.000000 0.000004 -23.887125 -0.249076 -0.839479 -60.080711 2.376974 -1.009099 -0.294025 1.679686 0.833256 -14.218190 0.093217 1.300581 -34.211998 -0.287558 0.967171 -20.033176 0.964538 1.212842 0.000000 -0.000000 0.000001 -3.440386 0.788231 0.501656 -15.928165 -3.167305 2.999704 -6.338817 0.000001 0.000001 -18.123411 3.648179 -4.905660 -0.000005 -0.000001 -0.000002 15.728827 12.516830 12.587432 50.147751 38.357758 28.506811 -177.990219 69.101807 -177.707077 -23.655098 10.743997 -5.684679 2.243539 -5.255033 -3.180153 14.282877 -0.826594 6.952497 -0.000001 -12.690592 -0.000001 16.088203 -17.833363 2.670816 1.665666 -1.955920 -2.878296 4.727795 -4.170583 4.993918 11.020511 0.000000 0.000002 12.109032 -3.735712 -2.866779 0.000000 0.000001 -0.000001 1.291985 -1.928550 -1.498089 14.800113 0.567466 3.865606 14.242553 -1.341739 -6.660647 19.631939 0.143923 -0.648242 50.059162 -0.488737 -5.933352 0.353029 -1.511151 -0.031939 20.222769 3.684305 2.316630 18.787245 0.000001 0.000001 10.751611 -0.479870 1.397905 0.000001 -0.000001 0.000001 3.273803 0.305947 -0.580109 21.486790 11.830360 2.266132 8.162915 0.000001 0.000001 18.399052 -3.798984 -4.940565 0.000003 0.000000 -0.000003 14.177983 19.815241 -17.324488 -0.425149 -0.640612 29.364702 -16.058172 -7.223103 7.513864 1.691544 -1.826271 -0.964863 -0.000000 0.000000 0.000002 -15.572137 -19.058420 5.375287 0.151020 0.771401 36.692482 8.579128 7.257608 -26.249189 -1.438775 0.762193 -1.906657 -0.000000 0.000001 -0.000001 
-3.102485 94.433640 1.037139 3.249845 1.712045 -9.482214 1.114965 0.166839 0.107156 -0.147524 1.322898 -4.298005 0.447937 -1.508012 14.597835 -8.865523 11.503406 26.967754 0.016781 1.642911 -3.649402 -1.781582 2.088944 -4.567904 0.000077 -0.000023 0.000005 -0.073901 0.229765 0.011437 0.601482 -3.480160 -10.628590 -0.762633 3.932863 -10.680360 -15.524321 -2.121573 11.132368 -46.733479 -5.973954 7.514850 178.451065 -79.082191 -179.994431 18.336367 -8.008109 -18.975527 -5.882100 9.861278 0.702590 -10.936859 -0.360575 7.156198 0.000001 8.774813 -0.000002 -15.611265 17.413427 5.946286 -1.844031 2.498503 -2.507275 -10.163589 4.678940 4.621106 -20.976002 -0.000005 0.000004 -21.226254 2.451693 -3.593992 0.000000 -0.000006 -0.000000 -1.362680 2.240797 -0.746323 -21.334890 0.584908 3.008321 -13.821197 -0.000003 0.000002 -23.887131 -0.249079 -0.839480 -59.756214 2.104808 -0.840410 -0.294025 1.679686 0.833255 -14.218194 0.093214 1.300580 -34.212006 -0.287564 0.967171 -20.033176 0.964535 1.212842 0.000000 0.000000 0.000000 -3.440386 0.788232 0.501655 -15.928169 -3.167306 2.999703 -6.338817 0.000000 0.000001 -18.123415 3.648176 -4.905661 -0.000004 0.000000 -0.000003 15.564662 13.156993 12.429218 47.922585 35.301208 27.144508 -178.528748 70.478424 -177.881042 -25.264595 10.372433 -7.440284 2.243542 -5.255030 -3.180156 14.282878 -0.826591 6.952493 -0.000004 -12.690590 0.000001 16.067642 -17.546228 2.603887 1.665664 -1.955921 -2.878298 4.727795 -4.170583 4.993918 11.020511 0.000004 -0.000002 12.109035 -3.735708 -2.866780 -0.000001 0.000000 -0.000000 1.291983 -1.928550 -1.498089 14.800113 0.567468 3.865601 14.242553 -1.341733 -6.660648 19.631941 0.143929 -0.648244 49.909801 -0.755260 -5.518278 0.353029 -1.511149 -0.031941 20.222769 3.684305 2.316626 18.787245 0.000006 -0.000001 10.751610 -0.479867 1.397903 0.000001 0.000000 0.000000 3.273805 0.305947 -0.580111 21.486792 11.830361 2.266129 8.162916 0.000002 -0.000002 18.399052 -3.798977 -4.940567 0.000003 0.000001 -0.000003 13.128901 18.146612 -17.650452 -0.398850 -0.673103 28.225510 -15.916496 -4.735178 11.405558 1.726015 -2.001217 -2.033020 -0.000000 -0.000000 0.000002 -15.322742 -18.308630 7.529636 0.135656 0.735471 31.936167 9.054260 6.452002 -23.968384 -1.442568 0.746398 -2.326301 -0.000000 -0.000000 -0.000001 
